<svg id="burger" xmlns="http://www.w3.org/2000/svg" width="47.66" height="40" viewBox="0 0 47.66 40">
  <path id="Path_107" data-name="Path 107" d="M955.427,531.688a1.276,1.276,0,0,1-1.276-1.277v-3.4a1.277,1.277,0,0,1,1.276-1.277h45.107a1.277,1.277,0,0,1,1.276,1.277v3.4a1.277,1.277,0,0,1-1.276,1.277Zm0,17.021a1.276,1.276,0,0,1-1.276-1.276v-3.4a1.276,1.276,0,0,1,1.276-1.276h45.107a1.277,1.277,0,0,1,1.276,1.276v3.4a1.277,1.277,0,0,1-1.276,1.276Zm0,17.021a1.276,1.276,0,0,1-1.276-1.276v-3.4a1.276,1.276,0,0,1,1.276-1.277h45.107a1.277,1.277,0,0,1,1.276,1.277v3.4a1.276,1.276,0,0,1-1.276,1.276Z" transform="translate(-954.15 -525.73)" fill="#222944"/>
</svg>
