<svg xmlns="http://www.w3.org/2000/svg" width="36.349" height="36.348" viewBox="0 0 36.349 36.348">
  <path id="Path_100" data-name="Path 100" d="M896.623,579.151v28.56a3.9,3.9,0,0,1-3.894,3.894h-28.56a3.9,3.9,0,0,1-3.9-3.894v-28.56a3.9,3.9,0,0,1,3.9-3.894h28.56A3.9,3.9,0,0,1,896.623,579.151Zm-5.283,8.935a7.191,7.191,0,0,0-7.534-7.537c-2.143-.122-8.567-.122-10.71,0a7.18,7.18,0,0,0-7.533,7.527c-.121,2.142-.121,8.566,0,10.71a7.189,7.189,0,0,0,7.533,7.533c2.143.122,8.567.122,10.71,0a7.191,7.191,0,0,0,7.534-7.533C891.461,596.641,891.461,590.222,891.34,588.086Zm-2.77-2.308c.678,1.71.522,5.764.522,7.653s.156,5.95-.522,7.654a4.382,4.382,0,0,1-2.467,2.467c-1.709.678-5.76.522-7.651.522s-5.948.151-7.652-.522a4.388,4.388,0,0,1-2.467-2.467c-.675-1.71-.525-5.765-.525-7.655s-.15-5.949.522-7.653a4.383,4.383,0,0,1,2.467-2.468c1.709-.678,5.761-.521,7.652-.521s5.947-.151,7.651.521a4.387,4.387,0,0,1,2.467,2.468Zm-10.113,14.306a6.648,6.648,0,0,0,6.645-6.645v-.008a6.653,6.653,0,1,0-6.653,6.653Zm4.321-6.653a4.328,4.328,0,1,1-4.329-4.327A4.33,4.33,0,0,1,882.778,593.431Zm2.6-5.376a1.55,1.55,0,0,0,1.548-1.55V586.5a1.553,1.553,0,1,0-1.553,1.553h0Z" transform="translate(-860.274 -575.257)" fill="#fff"/>
</svg>