<svg xmlns="http://www.w3.org/2000/svg" width="36.348" height="36.348" viewBox="0 0 36.348 36.348">
  <path id="Path_101" data-name="Path 101" d="M949.2,577.877v31.108a2.614,2.614,0,0,1-2.6,2.62H915.442a2.606,2.606,0,0,1-2.587-2.62V577.877a2.606,2.606,0,0,1,2.587-2.62h31.164A2.614,2.614,0,0,1,949.2,577.877Zm-24.933,5.7a3.124,3.124,0,1,0-3.123,3.123A3.131,3.131,0,0,0,924.27,583.574Zm-.421,22.839V589.066h-5.4v17.347h5.4Zm20.186-9.51c0-4.673-1.014-8.267-6.467-8.267a5.674,5.674,0,0,0-5.1,2.8h-.073v-2.369h-5.168v17.347h5.387v-8.584c0-2.264.43-4.455,3.237-4.455,2.759,0,2.8,2.589,2.8,4.6v8.438h5.387Z" transform="translate(-912.855 -575.257)" fill="#fff"/>
</svg>