<svg xmlns="http://www.w3.org/2000/svg" width="162.306" height="74.243" viewBox="0 0 162.306 74.243">
  <g id="Group_236" data-name="Group 236" transform="translate(-307.698 -6.817)">
    <path id="Path_219" data-name="Path 219" d="M118.612,2.782a12.4,12.4,0,0,1,8.852,3.684l47.014,47.247a12.647,12.647,0,0,1,0,17.8,12.467,12.467,0,0,1-17.7,0L109.761,24.272a12.652,12.652,0,0,1,0-17.806,12.4,12.4,0,0,1,8.852-3.684m0-.911a13.356,13.356,0,0,0-9.5,3.954,13.54,13.54,0,0,0,0,19.088L156.13,72.16a13.382,13.382,0,0,0,18.994,0,13.545,13.545,0,0,0,0-19.092L128.109,5.825a13.356,13.356,0,0,0-9.5-3.954" transform="translate(278.117 4.946)" fill="#e59f39"/>
    <path id="Path_220" data-name="Path 220" d="M151.794,28.366V28.3a13.464,13.464,0,0,0-13.465-13.465H103.858A13.466,13.466,0,0,0,90.393,28.3v.066a13.466,13.466,0,0,0,13.465,13.465h34.471a13.464,13.464,0,0,0,13.465-13.465" transform="translate(239.017 39.225)" fill="#50748a"/>
    <path id="Path_221" data-name="Path 221" d="M97.082,28.605V19.141H93.7V16.962h9.227v2.179H99.564v9.464Z" transform="translate(247.763 44.85)" fill="#fff"/>
    <path id="Path_222" data-name="Path 222" d="M105.134,28.605V23.7H99.668v4.909H97.2V16.962h2.464v4.573h5.466V16.962h2.482V28.605Z" transform="translate(257.027 44.85)" fill="#fff"/>
    <path id="Path_223" data-name="Path 223" d="M101.308,28.605V16.962H109.5v2.179h-5.725v2.445h5.6V23.77h-5.6v2.653H109.5v2.183Z" transform="translate(267.878 44.85)" fill="#fff"/>
    <path id="Path_224" data-name="Path 224" d="M101.141,22.347v.066a13.464,13.464,0,0,0,13.465,13.465H189.1a13.466,13.466,0,0,0,13.465-13.465v-.066A13.466,13.466,0,0,0,189.1,8.882H114.606a13.464,13.464,0,0,0-13.465,13.465" transform="translate(267.437 23.484)" fill="#fff"/>
    <path id="Path_225" data-name="Path 225" d="M108.322,22.573V13.109H104.94V10.93h9.227v2.179H110.8v9.464Z" transform="translate(277.482 28.9)" fill="#222944"/>
    <path id="Path_226" data-name="Path 226" d="M114.984,22.573l-2.27-4.14h-1.807v4.14h-2.464V10.93h5.415a3.625,3.625,0,0,1,3.9,3.75,3.369,3.369,0,0,1-2.551,3.458l2.62,4.435Zm.244-7.912a1.566,1.566,0,0,0-1.716-1.552h-2.606v3.145h2.606a1.576,1.576,0,0,0,1.716-1.593" transform="translate(286.745 28.9)" fill="#222944"/>
    <path id="Path_227" data-name="Path 227" d="M121.05,22.576l-.722-1.972h-4.963l-.729,1.972h-2.8L116.3,10.929h3.087l4.464,11.647Zm-3.2-9.169-1.808,5.011h3.611Z" transform="translate(295.73 28.897)" fill="#222944"/>
    <path id="Path_228" data-name="Path 228" d="M116.034,22.576V10.929h4.559c3.63,0,6.144,2.321,6.144,5.813,0,3.528-2.514,5.834-6.122,5.834Zm8.189-5.834a3.386,3.386,0,0,0-3.608-3.63H118.5v7.281h2.1a3.482,3.482,0,0,0,3.63-3.651" transform="translate(306.817 28.897)" fill="#222944"/>
    <path id="Path_229" data-name="Path 229" d="M120.055,22.573V10.93h8.189v2.179h-5.725v2.445h5.6v2.183h-5.6V20.39h5.725v2.183Z" transform="translate(317.449 28.9)" fill="#222944"/>
    <path id="Path_230" data-name="Path 230" d="M123.239,21.063l1.356-1.939a5.057,5.057,0,0,0,3.673,1.589c1.374,0,2.015-.612,2.015-1.29,0-2.026-6.662-.612-6.662-5,0-1.939,1.665-3.546,4.388-3.546a6.4,6.4,0,0,1,4.512,1.625l-1.37,1.851a4.941,4.941,0,0,0-3.364-1.272c-1.046,0-1.633.452-1.633,1.148,0,1.837,6.643.594,6.643,4.942,0,2.128-1.527,3.739-4.632,3.739a6.657,6.657,0,0,1-4.927-1.851" transform="translate(325.869 28.77)" fill="#222944"/>
    <path id="Path_231" data-name="Path 231" d="M127.382,22.353v-.066A13.464,13.464,0,0,0,113.917,8.822H97.9A13.466,13.466,0,0,0,84.435,22.287v.066A13.466,13.466,0,0,0,97.9,35.818h16.016a13.464,13.464,0,0,0,13.465-13.465" transform="translate(223.263 23.326)" fill="#e59f39"/>
    <rect id="Rectangle_1046" data-name="Rectangle 1046" width="2.463" height="11.643" transform="translate(320.61 39.9)" fill="#fff"/>
    <path id="Path_232" data-name="Path 232" d="M97.872,22.593,92.355,15v7.595H89.9V10.949h2.529l5.364,7.314V10.949h2.46V22.593Z" transform="translate(237.701 28.951)" fill="#fff"/>
  </g>
</svg>
