<svg id="Layer_1" data-name="Layer 1" xmlns="http://www.w3.org/2000/svg" viewBox="0 0 306.67 78.22"><defs><style>.cls-1{fill:#fff;}</style></defs><path class="cls-1" d="M207.46,59h-2.74V51.64h2.74a3.67,3.67,0,1,1,0,7.33Zm0-6.16H206v5h1.45a2.5,2.5,0,1,0,0-5Z"/><path class="cls-1" d="M218.36,52.79h-4.15V54.7h3.68v1.15h-3.68v2h4.2V59h-5.49V51.64h5.44Z"/><path class="cls-1" d="M222.78,54.72c1.55.38,2.35.93,2.35,2.16s-1.08,2.2-2.62,2.2a4.51,4.51,0,0,1-3.06-1.18l.78-.92a3.37,3.37,0,0,0,2.32,1c.79,0,1.3-.37,1.3-.94s-.3-.81-1.66-1.13c-1.56-.38-2.44-.84-2.44-2.2a2.24,2.24,0,0,1,2.5-2.14,4.09,4.09,0,0,1,2.66.92l-.69,1a3.35,3.35,0,0,0-2-.76c-.75,0-1.19.39-1.19.89S221.37,54.38,222.78,54.72Z"/><path class="cls-1" d="M25.74,38.71c2.89-8.24,7.67-13.38,12.91-16.58,12.19-8.58,30.64-11.87,42-11.55A51.88,51.88,0,0,0,20.44,8.71c-.17,1.95-1.19,18,4.74,31.48C25.51,39.26,25.74,38.71,25.74,38.71Z"/><path class="cls-1" d="M32.34,70.78C6.68,66.87,13.22,63.3,13.22,63.3l8.61-6A59,59,0,0,1,0,48.58C1.34,73,18.55,81.63,39.56,77.05c16.51-3.61,30.91-13.59,30.91-13.59Z"/><path class="cls-1" d="M98.49,46.18A44.46,44.46,0,0,0,85.35,14.8c-5.63-1.15-16.21-.47-26.6,2.4a39,39,0,0,1,6.3.59c23.12,4,25.26,31.76,25.26,31.76l2.62,1.53v7.15l4.07-.8A43.61,43.61,0,0,0,98.49,46.18Z"/><path class="cls-1" d="M23.65,45.53c-6.54-11.79-7.35-26.75-7.16-33.86A45,45,0,0,0,0,44.05a55,55,0,0,0,22.9,9.63A28.91,28.91,0,0,1,23.65,45.53Z"/><path class="cls-1" d="M118.36,71.58h-2.74V64.24h2.74a3.68,3.68,0,1,1,0,7.34Zm0-6.17h-1.45v5h1.45a2.5,2.5,0,1,0,0-5Z"/><path class="cls-1" d="M129.26,65.39h-4.15V67.3h3.68v1.15h-3.68v2h4.2v1.16h-5.49V64.24h5.44Z"/><path class="cls-1" d="M115.6,51.64h1.29v6.17h3.85V59H115.6Z"/><path class="cls-1" d="M127.53,52.8h-4.15v1.9h3.68v1.16h-3.68v2h4.2V59h-5.49V51.64h5.44Z"/><path class="cls-1" d="M131.94,54.72c1.55.38,2.36.94,2.36,2.16,0,1.39-1.08,2.21-2.62,2.21a4.51,4.51,0,0,1-3.06-1.18l.78-.92a3.35,3.35,0,0,0,2.31.95c.8,0,1.3-.36,1.3-.93s-.29-.82-1.65-1.13c-1.57-.38-2.45-.84-2.45-2.2a2.24,2.24,0,0,1,2.51-2.14,4,4,0,0,1,2.66.92l-.69,1a3.34,3.34,0,0,0-2-.75c-.76,0-1.2.39-1.2.88S130.54,54.39,131.94,54.72Z"/><path class="cls-1" d="M142.22,54.72c1.55.38,2.36.94,2.36,2.16,0,1.39-1.08,2.21-2.62,2.21a4.53,4.53,0,0,1-3.07-1.18l.78-.92a3.35,3.35,0,0,0,2.32.95c.79,0,1.3-.36,1.3-.93s-.3-.82-1.66-1.13c-1.56-.38-2.44-.84-2.44-2.2a2.24,2.24,0,0,1,2.5-2.14,4.08,4.08,0,0,1,2.67.92l-.7,1a3.34,3.34,0,0,0-2-.75c-.75,0-1.19.39-1.19.88S140.81,54.39,142.22,54.72Z"/><path class="cls-1" d="M149.24,59h-1.3V56.09L145,51.64h1.52l2,3.25,2.08-3.25h1.48l-2.92,4.42Z"/><path class="cls-1" d="M158.42,51.64h1.26V59H158.6l-4-5.22V59h-1.27V51.64h1.19l3.94,5.08Z"/><path class="cls-1" d="M164.31,59h-2.74V51.64h2.74a3.68,3.68,0,1,1,0,7.34Zm0-6.16h-1.45v5h1.45a2.5,2.5,0,1,0,0-5Z"/><path class="cls-1" d="M171.13,51.64V59h-1.28V51.64Z"/><path class="cls-1" d="M176.5,59.11a3.8,3.8,0,0,1,.05-7.59,3.85,3.85,0,0,1,2.88,1.14l-.83,1a3,3,0,0,0-2-.91,2.62,2.62,0,0,0,0,5.22,2.89,2.89,0,0,0,2.1-1l.83.84A3.81,3.81,0,0,1,176.5,59.11Z"/><path class="cls-1" d="M187.65,59h-1.36l-.75-1.77h-3.47L181.32,59H180l3.22-7.39h1.2Zm-3.85-5.85-1.26,2.94h2.53Z"/><path class="cls-1" d="M190.86,59h-1.3V52.84h-2.33v-1.2h6v1.2h-2.32Z"/><path class="cls-1" d="M197.22,54.72c1.55.38,2.36.94,2.36,2.16,0,1.39-1.08,2.21-2.62,2.21a4.51,4.51,0,0,1-3.06-1.18l.77-.92a3.39,3.39,0,0,0,2.32.95c.8,0,1.3-.36,1.3-.93s-.29-.82-1.66-1.13c-1.56-.38-2.44-.84-2.44-2.2a2.24,2.24,0,0,1,2.51-2.14,4,4,0,0,1,2.66.92l-.69,1a3.34,3.34,0,0,0-2-.75c-.76,0-1.2.39-1.2.88S195.82,54.39,197.22,54.72Z"/><path class="cls-1" d="M234.08,57.18h0l-2.29-3.44V59h-1.27V51.64h1.37l2.23,3.47,2.24-3.47h1.37V59H236.4V53.72Z"/><path class="cls-1" d="M245.23,52.8h-4.15v1.9h3.68v1.16h-3.68v2h4.2V59h-5.49V51.64h5.44ZM241.75,51l1.11-1.72,1.15.52L242.73,51Z"/><path class="cls-1" d="M249.71,59h-1.3V52.84h-2.33v-1.2H252v1.2h-2.32Z"/><path class="cls-1" d="M254.55,51.64V59h-1.29V51.64Z"/><path class="cls-1" d="M262,52.8H257.8v1.9h3.68v1.16H257.8v2H262V59h-5.49V51.64H262Z"/><path class="cls-1" d="M268.45,59l-1.8-2.56H265V59h-1.29V51.64H267c1.69,0,2.72.89,2.72,2.33A2.19,2.19,0,0,1,268,56.2L270,59Zm-1.54-6.16H265v2.46h1.88c.93,0,1.51-.48,1.51-1.24S267.87,52.82,266.91,52.82Z"/><path class="cls-1" d="M274.37,54.72c1.55.38,2.36.94,2.36,2.16,0,1.39-1.08,2.21-2.62,2.21a4.47,4.47,0,0,1-3.06-1.18l.77-.92a3.35,3.35,0,0,0,2.32.95c.79,0,1.3-.36,1.3-.93s-.3-.82-1.66-1.13c-1.56-.38-2.44-.84-2.44-2.2a2.24,2.24,0,0,1,2.5-2.14,4.08,4.08,0,0,1,2.67.92l-.7,1a3.34,3.34,0,0,0-2-.75c-.75,0-1.19.39-1.19.88S273,54.39,274.37,54.72Z"/><path class="cls-1" d="M134.15,64.22h1.29v6.17h3.86v1.17h-5.15Z"/><path class="cls-1" d="M147.67,71.56H146.3l-.74-1.77h-3.47l-.76,1.77H140l3.23-7.39h1.2Zm-3.85-5.85-1.26,2.94h2.52Z"/><path class="cls-1" d="M154.85,71.69a3.8,3.8,0,0,1,.05-7.59,3.82,3.82,0,0,1,2.87,1.14l-.83,1a2.91,2.91,0,0,0-2.05-.91,2.62,2.62,0,0,0,0,5.22,2.87,2.87,0,0,0,2.11-1l.83.84A3.83,3.83,0,0,1,154.85,71.69Z"/><path class="cls-1" d="M162.47,71.69a3.8,3.8,0,1,1,3.85-3.81A3.73,3.73,0,0,1,162.47,71.69Zm0-6.41a2.48,2.48,0,0,0-2.47,2.6,2.51,2.51,0,0,0,2.49,2.62A2.48,2.48,0,0,0,165,67.9,2.52,2.52,0,0,0,162.47,65.28Z"/><path class="cls-1" d="M173,64.22h1.27v7.34H173.2l-4-5.22v5.22h-1.27V64.22h1.2L173,69.3Z"/><path class="cls-1" d="M179,67.31c1.55.37,2.35.93,2.35,2.16s-1.08,2.2-2.62,2.2a4.51,4.51,0,0,1-3.06-1.18l.78-.92a3.35,3.35,0,0,0,2.31,1c.8,0,1.31-.36,1.31-.93s-.3-.82-1.66-1.13c-1.56-.38-2.44-.84-2.44-2.2a2.23,2.23,0,0,1,2.5-2.14,4,4,0,0,1,2.66.92l-.69,1a3.29,3.29,0,0,0-2-.76c-.75,0-1.2.39-1.2.88S177.59,67,179,67.31Z"/><path class="cls-1" d="M185.82,71.56h-1.3V65.42h-2.33v-1.2h6v1.2h-2.33Z"/><path class="cls-1" d="M194.22,71.56,192.42,69H190.8v2.56h-1.29V64.22h3.27c1.69,0,2.73.9,2.73,2.33a2.2,2.2,0,0,1-1.75,2.23l2,2.78Zm-1.54-6.16H190.8v2.46h1.89c.92,0,1.51-.48,1.51-1.24S193.63,65.4,192.68,65.4Z"/><path class="cls-1" d="M203.26,68.39c0,2.19-1.24,3.29-3.16,3.29A2.89,2.89,0,0,1,197,68.45V64.22h1.29V68.4c0,1.36.7,2.09,1.85,2.09s1.85-.69,1.85-2V64.22h1.29Z"/><path class="cls-1" d="M208.23,71.69a3.8,3.8,0,0,1,.05-7.59,3.82,3.82,0,0,1,2.87,1.14l-.82,1a3,3,0,0,0-2.06-.91,2.62,2.62,0,0,0,0,5.22,2.87,2.87,0,0,0,2.11-1l.82.84A3.79,3.79,0,0,1,208.23,71.69Z"/><path class="cls-1" d="M215.66,71.56h-1.3V65.42H212v-1.2h6v1.2h-2.33Z"/><path class="cls-1" d="M220.72,64.22v7.34h-1.29V64.22Z"/><path class="cls-1" d="M226.18,71.69A3.8,3.8,0,1,1,230,67.88,3.73,3.73,0,0,1,226.18,71.69Zm0-6.41a2.49,2.49,0,0,0-2.48,2.6,2.52,2.52,0,0,0,2.5,2.62,2.48,2.48,0,0,0,2.47-2.6A2.52,2.52,0,0,0,226.18,65.28Z"/><path class="cls-1" d="M236.5,64.22h1.27v7.34h-1.08l-4-5.22v5.22h-1.27V64.22h1.19l3.93,5.08Z"/><path class="cls-1" d="M245.54,71.56h-2.73V64.22h2.73a3.68,3.68,0,1,1,0,7.34Zm0-6.16H244.1v5h1.44a2.5,2.5,0,1,0,0-5Z"/><path class="cls-1" d="M257,68.39c0,2.19-1.24,3.29-3.15,3.29a2.9,2.9,0,0,1-3.13-3.23V64.22H252V68.4c0,1.36.7,2.09,1.86,2.09s1.84-.69,1.84-2V64.22H257Z"/><path class="cls-1" d="M264.66,71.69a3.8,3.8,0,0,1,0-7.59,3.82,3.82,0,0,1,2.87,1.14l-.83,1a2.91,2.91,0,0,0-2.05-.91,2.62,2.62,0,0,0,0,5.22,2.87,2.87,0,0,0,2.11-1l.82.84A3.79,3.79,0,0,1,264.66,71.69Z"/><path class="cls-1" d="M275.59,71.56h-1.36l-.74-1.77H270l-.76,1.77h-1.32l3.23-7.39h1.19Zm-3.84-5.85-1.26,2.94H273Z"/><path class="cls-1" d="M281.77,64.22H283v7.34H282l-4-5.22v5.22h-1.27V64.22h1.2l3.93,5.08Z"/><path class="cls-1" d="M291.53,71.56h-1.36l-.75-1.77H286l-.75,1.77h-1.32l3.23-7.39h1.19Zm-3.85-5.85-1.26,2.94H289Z"/><path class="cls-1" d="M295.11,71.56h-2.74V64.22h2.74a3.68,3.68,0,1,1,0,7.34Zm0-6.16h-1.45v5h1.45a2.5,2.5,0,1,0,0-5Z"/><path class="cls-1" d="M306.67,71.56h-1.36l-.75-1.77h-3.47l-.75,1.77H299l3.23-7.39h1.19Zm-3.85-5.85-1.25,2.94h2.52Z"/><path class="cls-1" d="M125.78,39.42a20,20,0,0,1-13.32-5l4.08-4.88c2.83,2.33,5.78,3.81,9.37,3.81,2.82,0,4.53-1.12,4.53-3v-.09c0-1.75-1.08-2.64-6.32-4-6.32-1.61-10.4-3.36-10.4-9.59v-.09c0-5.69,4.57-9.45,11-9.45a18.17,18.17,0,0,1,11.65,4l-3.58,5.2c-2.78-1.92-5.52-3.09-8.16-3.09s-4,1.21-4,2.73v.09c0,2.07,1.34,2.74,6.76,4.13,6.37,1.66,9.95,3.94,9.95,9.41v.09C137.29,35.93,132.54,39.42,125.78,39.42Z"/><path class="cls-1" d="M166,39V18.49l-8.83,13.4H157l-8.74-13.26V39H141.5V7.6h7.44l8.25,13.27L165.44,7.6h7.43V39Z"/><path class="cls-1" d="M193.31,39.51a15.83,15.83,0,0,1-16.09-16.13v-.09A16,16,0,0,1,193.58,7.07c5.92,0,9.46,2,12.37,4.84L201.56,17c-2.42-2.2-4.89-3.54-8-3.54-5.29,0-9.1,4.39-9.1,9.77v.09c0,5.38,3.72,9.86,9.1,9.86,3.58,0,5.78-1.44,8.24-3.68l4.39,4.44A16,16,0,0,1,193.31,39.51Z"/><path class="cls-1" d="M223.7,39.51a15.83,15.83,0,0,1-16.09-16.13v-.09A15.94,15.94,0,0,1,224,7.07c5.92,0,9.46,2,12.37,4.84L231.94,17c-2.42-2.2-4.88-3.54-8-3.54-5.29,0-9.1,4.39-9.1,9.77v.09c0,5.38,3.72,9.86,9.1,9.86,3.58,0,5.78-1.44,8.24-3.68l4.4,4.44A16.05,16.05,0,0,1,223.7,39.51Z"/></svg>