<svg xmlns="http://www.w3.org/2000/svg" width="41.542" height="33.739" viewBox="0 0 41.542 33.739">
  <path id="Path_102" data-name="Path 102" d="M1002.731,586.077c0,11.255-8.566,24.224-24.223,24.224a24.062,24.062,0,0,1-13.074-3.822,17.628,17.628,0,0,0,2.056.1,17.053,17.053,0,0,0,10.57-3.637,8.527,8.527,0,0,1-7.96-5.905,10.737,10.737,0,0,0,1.608.132,8.978,8.978,0,0,0,2.24-.29,8.515,8.515,0,0,1-6.827-8.355v-.106a8.584,8.584,0,0,0,3.848,1.081,8.527,8.527,0,0,1-2.635-11.387,24.2,24.2,0,0,0,17.554,8.909,9.665,9.665,0,0,1-.211-1.95,8.523,8.523,0,0,1,14.735-5.826,16.776,16.776,0,0,0,5.4-2.055,8.493,8.493,0,0,1-3.743,4.691,17.1,17.1,0,0,0,4.9-1.318,18.308,18.308,0,0,1-4.27,4.4C1002.731,585.339,1002.731,585.709,1002.731,586.077Z" transform="translate(-965.434 -576.562)" fill="#fff"/>
</svg>