<svg xmlns="http://www.w3.org/2000/svg" width="44.312" height="31.156" viewBox="0 0 44.312 31.156">
  <path id="Path_103" data-name="Path 103" d="M1064.618,593.463s0,7.256-.926,10.734a5.49,5.49,0,0,1-3.918,3.881c-3.456.931-17.312.931-17.312.931s-13.856,0-17.312-.931a5.488,5.488,0,0,1-3.918-3.881c-.926-3.478-.926-10.734-.926-10.734s0-7.256.926-10.735a5.568,5.568,0,0,1,3.918-3.943c3.456-.932,17.312-.932,17.312-.932s13.856,0,17.312.932a5.57,5.57,0,0,1,3.918,3.943C1064.618,586.207,1064.618,593.463,1064.618,593.463Zm-15.107,0-11.581-6.589v13.177Z" transform="translate(-1020.306 -577.853)" fill="#fff"/>
</svg>